:SAMPLES-PER-SECOND 30
:FRAME-RANGE 1-1770
:FULLY-SPECIFIED
:DEGREES
1273
root  -8.90648 38.9254 -2.6501 -1.47127 21.7451 -3.22144
RightUpLeg  -7.88996 1.20295 9.42244
RightLeg  21.2672 2.96101 0.780417
RightFoot  -13.3457 -0.161197 -4.05894
RightToes  -1.33073e-015 0 -3.6325e-017
Spine  -5.67875 -0.651535 5.89769
Spine1  8.21842 -0.770059 2.21366
HEad  20.8596 3.95886 0.409776
LeftShoulder1  1.24648 -0.983213 -23.0344
LeftArm  -0.59631 7.70695 -50.1853
LeftForeArm  39.2907 4.02134 -13.2377
LeftHand  -0.0183566 5.56172 4.63731
RightShoulder  1.52808 1.31517 27.0525
RightArm  -24.2046 11.987 53.6881
RightForeArm  71.5132 -5.17691 3.10298
RightHand  0.288732 -7.26179 -18.7419
LeftUpLeg  -21.277 4.97851 5.45323
LeftLeg  59.5095 1.97445 4.18018
LeftFoot  -0.465728 0.648877 -6.78332
LeftToes  1.09107e-011 -1.16422e-010 2.98337e-011
1274
root  -8.17778 38.9749 -1.50542 -1.08275 19.9438 -2.19458
RightUpLeg  -5.53691 1.95079 8.18485
RightLeg  21.2722 3.76522 0.89611
RightFoot  -14.9807 -0.240655 -4.38691
RightToes  -1.33073e-015 0 -3.6325e-017
Spine  -5.32752 0.0749022 5.76597
Spine1  7.8388 0.127068 0.854446
HEad  20.3822 3.71723 0.476548
LeftShoulder1  1.20395 -0.792915 -23.3625
LeftArm  -0.557381 9.28991 -49.3977
LeftForeArm  39.1685 5.3817 -13.4032
LeftHand  -0.00800221 5.86679 4.56365
RightShoulder  1.64977 1.8338 26.0609
RightArm  -21.4757 15.1419 56.0783
RightForeArm  68.7307 -5.48261 4.2887
RightHand  0.203066 -6.6729 -19.4517
LeftUpLeg  -23.8349 4.4608 4.94732
LeftLeg  53.365 4.48178 6.91366
LeftFoot  -3.11335 0.372187 -4.91377
LeftToes  1.09107e-011 -1.16422e-010 2.98337e-011
1275
root  -7.44927 39.0021 -0.313874 -0.720277 18.7826 -1.16635
RightUpLeg  -3.02294 3.29846 7.00188
RightLeg  20.9436 3.35762 0.562756
RightFoot  -16.5393 -0.305994 -4.27694
RightToes  -1.33073e-015 0 -3.6325e-017
Spine  -5.37109 0.515682 5.14666
Spine1  7.9712 0.659369 -0.126086
HEad  19.7317 3.64489 0.528506
LeftShoulder1  1.16967 -0.628279 -23.7388
LeftArm  -0.552896 10.686 -48.6547
LeftForeArm  39.5915 6.71073 -13.4938
LeftHand  -0.00336732 6.06363 4.25289
RightShoulder  1.74191 2.23173 25.4009
RightArm  -18.5951 18.2673 57.8818
RightForeArm  66.819 -5.74119 5.4183
RightHand  0.0983289 -6.05643 -19.1773
LeftUpLeg  -25.1571 3.18403 4.59659
LeftLeg  44.358 6.80718 7.46962
LeftFoot  -3.73064 0.302949 -4.2175
LeftToes  1.09107e-011 -1.16422e-010 2.98337e-011
1276
root  -6.70404 39.0005 0.907602 -0.143677 18.2499 -0.220001
RightUpLeg  -0.589662 3.51445 5.58537
RightLeg  20.2434 3.57848 0.654504
RightFoot  -18.011 -0.385154 -4.51829
RightToes  -1.33073e-015 0 -3.6325e-017
Spine  -5.86803 0.737493 4.2506
Spine1  8.35343 0.911493 -0.823899
HEad  19.0668 3.53859 0.49228
LeftShoulder1  1.1556 -0.533343 -24.1264
LeftArm  -0.32798 12.0299 -48.0509
LeftForeArm  39.886 7.65326 -13.6381
LeftHand  0.00446147 6.36035 4.08349
RightShoulder  1.79591 2.51079 24.799
RightArm  -15.978 20.9994 59.287
RightForeArm  65.5922 -5.18015 6.45376
RightHand  0.0588829 -5.82002 -19.0478
LeftUpLeg  -25.436 0.913674 4.4347
LeftLeg  32.6667 9.0511 6.54474
LeftFoot  -1.82423 0.428271 -5.01232
LeftToes  1.09107e-011 -1.16422e-010 2.98337e-011
1277
root  -5.94126 38.9701 2.15958 0.509262 18.1869 0.581177
RightUpLeg  2.07806 3.14071 4.24617
RightLeg  18.8662 3.93026 0.659946
RightFoot  -19.2884 -0.426781 -4.26462
RightToes  -1.33073e-015 0 -3.6325e-017
Spine  -6.71479 0.803165 3.27163
Spine1  9.07778 1.01419 -1.35971
HEad  18.487 3.45133 0.365632
LeftShoulder1  1.1517 -0.481513 -24.4505
LeftArm  -0.682542 13.3937 -47.7403
LeftForeArm  40.6867 7.60615 -13.7069
LeftHand  0.00853592 6.55595 3.91817
RightShoulder  1.83352 2.7423 24.2149
RightArm  -13.9719 23.191 60.2696
RightForeArm  65.1444 -2.7015 7.46286
RightHand  0.0294928 -5.64312 -18.8757
LeftUpLeg  -24.6839 -2.37811 4.71566
LeftLeg  19.2627 11.4826 4.74181
LeftFoot  0.45314 0.581853 -5.65824
LeftToes  1.09107e-011 -1.16422e-010 2.98337e-011
1278
root  -5.14424 38.901 3.44771 0.978672 18.2795 1.17328
RightUpLeg  5.03009 2.32732 2.92467
RightLeg  17.3175 4.85919 0.797825
RightFoot  -20.3703 -0.479485 -4.32594
RightToes  -1.33073e-015 0 -3.6325e-017
Spine  -7.34375 0.84294 2.53731
Spine1  9.70542 1.17402 -1.92653
HEad  18.0382 3.32405 0.245226
LeftShoulder1  1.13619 -0.412157 -24.6075
LeftArm  -1.08437 14.8444 -47.5691
LeftForeArm  41.1511 7.59102 -13.6983
LeftHand  0.00477783 6.58154 3.52816
RightShoulder  1.84795 2.85862 23.8608
RightArm  -12.3388 24.7488 60.5975
RightForeArm  64.9069 -0.606044 8.31256
RightHand  0.00777048 -5.51306 -18.5233
LeftUpLeg  -23.5477 -0.659764 2.82491
LeftLeg  6.91518 7.64373 3.0614
LeftFoot  -0.639889 0.408955 -4.32529
LeftToes  1.09107e-011 -1.16422e-010 2.98337e-011
1279
root  -4.31787 38.8191 4.74734 1.38998 18.0295 1.80341
RightUpLeg  7.78855 2.66988 1.73458
RightLeg  16.299 4.7809 0.768078
RightFoot  -21.1088 -0.470076 -3.82899
RightToes  -1.33073e-015 0 -3.6325e-017
Spine  -7.95595 1.02637 2.02977
Spine1  10.4328 1.63651 -2.81382
HEad  17.9261 3.21175 0.240498
LeftShoulder1  1.09251 -0.25279 -24.7545
LeftArm  -1.13819 16.2251 -47.4058
LeftForeArm  40.5047 7.59795 -13.7593
LeftHand  0.00196635 6.66261 3.35503
RightShoulder  1.88859 3.03387 23.667
RightArm  -11.2988 25.7356 60.4731
RightForeArm  64.5451 0.566452 8.87378
RightHand  -0.000283359 -5.48616 -18.4929
LeftUpLeg  -22.4957 0.860873 1.7418
LeftLeg  -1.72876 5.95264 0.774202
LeftFoot  -4.10656 0.423808 -6.31097
LeftToes  1.09107e-011 -1.16422e-010 2.98337e-011
1280
root  -3.41453 38.6431 6.09611 1.43125 17.8343 1.79645
RightUpLeg  9.59472 4.7424 1.52735
RightLeg  17.8866 3.40739 0.884632
RightFoot  -21.817 -0.382976 -2.56691
RightToes  -1.33073e-015 0 -3.6325e-017
Spine  -8.0148 1.20324 2.16389
Spine1  10.4219 1.91381 -3.22004
HEad  18.1146 3.24834 0.32402
LeftShoulder1  1.00301 0.0799262 -25.1629
LeftArm  -1.72228 17.3006 -47.1113
LeftForeArm  40.2701 7.63739 -13.6467
LeftHand  0.00037265 6.56885 3.06032
RightShoulder  1.93285 3.20813 23.5473
RightArm  -11.0359 26.114 60.205
RightForeArm  64.8057 0.4494 8.9836
RightHand  0.017782 -5.57049 -18.8797
LeftUpLeg  -22.758 0.281675 0.990559
LeftLeg  -1.50077 6.70934 0.870322
LeftFoot  -7.06677 0.289087 -6.60747
LeftToes  1.09107e-011 -1.16422e-010 2.98337e-011
1281
root  -2.51401 38.5259 7.48387 1.57206 18.0691 2.30292
RightUpLeg  10.7719 6.63979 1.1426
RightLeg  21.0186 2.27824 0.753487
RightFoot  -21.6566 -0.183436 -0.408325
RightToes  -1.33073e-015 0 -3.6325e-017
Spine  -8.70968 1.23874 1.24095
Spine1  11.7903 2.02066 -3.21039
HEad  17.5791 3.0897 0.218543
LeftShoulder1  0.919256 0.37386 -25.4338
LeftArm  -2.69514 17.5022 -47.4525
LeftForeArm  40.6857 7.66714 -13.4328
LeftHand  0.00166542 6.63445 3.15626
RightShoulder  1.92759 3.20087 23.4965
RightArm  -11.3338 26.2754 59.6294
RightForeArm  65.6366 -0.298422 8.75753
RightHand  0.0275825 -5.63106 -18.8872
LeftUpLeg  -23.7553 -0.0741872 -0.232256
LeftLeg  3.56815 6.47343 1.06095
LeftFoot  -1.19255 0.335195 -3.69433
LeftToes  1.09107e-011 -1.16422e-010 2.98337e-011
1282
root  -1.65031 38.5132 8.95003 2.32435 17.3293 3.91446
RightUpLeg  9.91123 9.19255 -0.389267
RightLeg  27.2639 2.3323 1.08029
RightFoot  -20.044 0.0660268 2.65161
RightToes  -1.33073e-015 0 -3.6325e-017
Spine  -8.48503 2.06984 1.04204
Spine1  11.6734 3.56946 -6.03918
HEad  17.2572 2.15058 1.22765
LeftShoulder1  0.835384 0.485145 -23.6123
LeftArm  -2.6985 17.8805 -48.9014
LeftForeArm  40.9458 7.60611 -13.6716
LeftHand  0.00811393 6.71697 3.51879
RightShoulder  1.77367 2.16464 26.4115
RightArm  -11.5638 25.3413 57.0389
RightForeArm  66.8154 -1.33367 8.85471
RightHand  0.0934639 -6.03051 -19.0871
LeftUpLeg  -23.3375 -2.00901 -2.14146
LeftLeg  6.14372 7.7744 2.60141
LeftFoot  3.45049 0.487671 -3.9182
LeftToes  1.09107e-011 -1.16422e-010 2.98337e-011
1283
root  -0.811542 38.602 10.4342 3.59535 16.8721 5.64389
RightUpLeg  5.87379 9.04219 -3.28604
RightLeg  37.1217 4.29429 3.22587
RightFoot  -14.584 0.0898467 6.66557
RightToes  -1.33073e-015 0 -3.6325e-017
Spine  -7.0365 2.41731 0.250568
Spine1  9.59642 4.26004 -8.11124
HEad  16.0745 1.96379 1.03119
LeftShoulder1  0.723754 0.786808 -22.677
LeftArm  -1.22483 18.4689 -48.7269
LeftForeArm  40.0356 7.50752 -14.0646
LeftHand  -0.00592374 6.26392 3.2308
RightShoulder  1.62663 1.45786 28.1786
RightArm  -13.3209 21.8654 55.9579
RightForeArm  68.8117 -1.79864 8.19801
RightHand  0.194596 -6.64114 -19.1929
LeftUpLeg  -22.7452 -1.0818 -3.59826
LeftLeg  8.4054 7.8751 1.19662
LeftFoot  3.39792 0.721937 -5.7392
LeftToes  1.09107e-011 -1.16422e-010 2.98337e-011
